<?xml version="1.0" standalone="no"?>
<!DOCTYPE svg PUBLIC "-//W3C//DTD SVG 20010904//EN"
 "http://www.w3.org/TR/2001/REC-SVG-20010904/DTD/svg10.dtd">
<svg version="1.0" xmlns="http://www.w3.org/2000/svg"
 width="1024.000000pt" height="1024.000000pt" viewBox="120 80 800 870"
 preserveAspectRatio="xMidYMid meet">
<metadata>
Created by potrace 1.16, written by Peter Selinger 2001-2019
</metadata>
<g transform="translate(0.000000,1024.000000) scale(0.100000,-0.100000)"
fill="#000000" stroke="none">
<path d="M1832 9150 c-252 -68 -439 -271 -508 -550 -26 -107 -24 -339 4 -470
68 -312 224 -585 534 -936 121 -136 122 -137 106 -163 -8 -14 -57 -96 -107
-181 -134 -227 -158 -323 -86 -350 38 -15 70 3 100 57 24 42 225 382 231 391
1 2 103 -86 226 -195 549 -490 888 -732 1543 -1105 294 -168 608 -293 943
-377 157 -39 360 -71 453 -71 54 0 53 1 39 -52 l-11 -37 -977 -3 -977 -3 -79
-23 c-91 -26 -187 -68 -242 -106 l-38 -26 -56 32 c-294 166 -444 376 -490 693
-10 63 -10 116 0 246 l13 165 -26 56 c-36 81 -90 118 -169 118 -35 0 -75 -7
-94 -16 -121 -58 -263 -268 -321 -478 -25 -90 -24 -347 1 -436 102 -350 332
-591 721 -755 50 -21 91 -39 93 -40 2 -2 -8 -39 -22 -83 -27 -87 -46 -211 -46
-307 0 -40 -9 -88 -25 -136 -14 -41 -68 -212 -119 -380 -52 -168 -100 -319
-109 -335 -32 -62 -481 -553 -547 -598 -79 -55 -139 -117 -167 -174 -23 -46
-27 -69 -27 -141 -1 -104 9 -124 141 -281 185 -222 269 -313 308 -334 36 -19
59 -21 221 -24 211 -4 237 2 280 68 40 60 46 179 14 264 -39 102 -136 184
-237 201 -24 4 -43 10 -43 14 0 4 116 120 257 257 234 226 265 253 333 285
178 85 479 364 620 577 l15 23 77 -17 c68 -15 77 -20 83 -43 3 -14 38 -106 77
-204 l72 -178 -16 -97 c-9 -53 -37 -221 -63 -372 -46 -264 -47 -277 -35 -343
l13 -68 129 -121 c70 -66 128 -124 128 -129 0 -5 -220 -9 -499 -9 l-500 0 -20
-26 c-28 -35 -26 -69 4 -100 l24 -24 2041 2 2042 3 24 28 c31 36 30 62 -1 92
-24 25 -27 25 -187 25 l-163 0 -1 53 c0 42 -7 62 -36 107 -82 127 -197 189
-353 190 l-60 0 -26 88 c-15 48 -63 203 -108 345 -86 273 -91 301 -75 455 7
60 7 60 43 67 65 12 195 56 272 92 l77 35 93 -74 c154 -122 249 -187 337 -230
68 -34 95 -55 150 -117 37 -42 187 -201 334 -353 148 -152 268 -282 268 -289
0 -7 14 -34 31 -61 45 -69 105 -103 186 -103 61 0 70 4 379 160 343 174 354
181 354 260 0 89 -94 217 -193 263 -100 47 -230 54 -327 18 -25 -10 -50 -18
-55 -19 -18 -3 -509 560 -522 599 -17 48 -69 121 -96 135 -12 7 -28 21 -36 31
-22 32 -250 308 -312 378 l-57 66 15 59 c9 36 17 129 20 230 5 149 3 181 -16
257 -20 87 -20 88 -1 165 28 114 43 235 38 302 -5 75 -36 122 -123 192 l-65
53 0 52 0 53 513 4 c487 3 516 5 590 25 173 48 271 101 389 211 134 125 226
286 259 450 15 80 6 304 -16 385 -20 71 -64 161 -100 204 -14 17 -44 40 -68
51 -42 20 -101 23 -528 30 l-46 1 -7 63 c-23 212 -114 418 -224 506 l-39 30
-6 148 c-3 81 -13 189 -22 238 -20 112 -74 277 -120 364 -56 106 -151 191
-212 191 -36 0 -93 -21 -121 -45 -57 -48 -314 -471 -383 -629 l-24 -56 -341 0
-342 0 -13 33 c-23 57 -174 321 -247 433 -139 213 -259 292 -361 239 -70 -36
-173 -181 -245 -343 -79 -183 -106 -313 -106 -522 0 -152 17 -256 56 -332 29
-58 92 -133 139 -167 l46 -33 -2 -357 c-2 -382 2 -436 48 -574 42 -126 143
-265 257 -354 l40 -30 -84 -12 c-102 -15 -135 -31 -163 -78 l-21 -36 -90 6
c-238 17 -536 94 -874 228 -574 228 -1535 878 -2109 1426 l-93 88 75 120 c77
122 243 447 288 565 81 207 112 384 104 595 -6 170 -30 272 -93 399 -89 176
-235 309 -404 366 -93 32 -241 37 -338 10z m273 -170 c87 -30 142 -66 215
-140 78 -80 141 -193 170 -306 42 -163 21 -414 -51 -621 -40 -115 -169 -381
-272 -562 l-82 -143 -68 73 c-101 110 -264 313 -323 405 -285 436 -312 900
-68 1164 98 105 196 149 335 150 61 0 103 -6 144 -20z m5168 -988 c55 -90 117
-270 136 -396 16 -104 23 -216 14 -216 -4 0 -42 12 -83 26 -111 38 -235 63
-349 70 -57 4 -101 11 -101 17 0 27 204 390 277 495 39 54 47 61 64 52 10 -6
30 -28 42 -48z m-1746 1 c86 -92 383 -593 383 -645 0 -14 -13 -43 -29 -64 -50
-68 -288 -316 -331 -345 -85 -57 -150 -48 -225 32 -105 112 -143 287 -111 500
10 62 33 159 52 216 58 178 157 343 206 343 11 0 36 -17 55 -37z m1663 -693
c291 -60 463 -264 505 -597 7 -52 6 -53 -19 -53 -24 0 -26 4 -26 41 0 88 -63
158 -148 166 -92 9 -162 -74 -162 -192 0 -84 25 -125 77 -125 21 0 81 -2 133
-4 52 -2 161 -4 241 -5 l146 -1 5 -67 c9 -128 67 -214 177 -264 59 -27 61 -38
36 -147 -34 -145 -113 -248 -233 -305 l-67 -32 -235 0 c-194 0 -245 3 -290 17
-70 22 -149 73 -169 112 -29 53 -50 69 -84 62 -45 -9 -67 -33 -67 -76 0 -96
133 -206 303 -250 109 -27 446 -38 547 -16 92 19 182 62 243 116 l47 41 47
-32 c27 -18 50 -34 52 -35 7 -6 -60 -58 -122 -97 -34 -21 -98 -50 -142 -65
l-80 -27 -903 2 c-649 1 -923 5 -975 13 -248 42 -456 196 -538 401 -39 98 -49
211 -49 550 l0 316 54 6 c89 9 149 47 275 176 194 199 291 323 291 373 0 17
30 18 518 18 474 0 525 -2 612 -20z m1294 -1140 c0 -66 -6 -134 -13 -160 -15
-52 -72 -176 -94 -205 -15 -19 -15 -19 -53 8 -84 59 -79 46 -49 134 16 47 29
110 32 160 l6 83 42 24 c44 27 105 88 106 109 0 7 5 1 11 -13 6 -14 11 -77 12
-140z m-6202 -67 c22 -19 23 -55 6 -205 -43 -397 145 -786 476 -989 47 -29 86
-54 86 -57 0 -2 -17 -25 -38 -51 -21 -25 -48 -60 -60 -78 l-22 -31 -74 28
c-280 108 -495 288 -605 507 -71 143 -99 341 -67 489 25 113 102 268 172 343
60 65 91 76 126 44z m3616 -912 c102 -51 257 -104 389 -133 79 -17 134 -21
278 -22 99 -1 200 2 225 7 41 7 48 5 80 -23 34 -29 34 -31 15 -45 -42 -33 -98
-40 -305 -40 -232 1 -344 17 -545 82 -188 60 -440 203 -489 277 l-16 25 58 6
c31 4 62 8 67 9 6 2 44 -20 85 -49 41 -29 113 -71 158 -94z m-280 -146 c256
-165 624 -265 972 -265 114 0 242 15 293 36 16 6 18 3 12 -32 -3 -22 -13 -58
-21 -81 -14 -37 -23 -46 -77 -72 -118 -58 -241 -63 -494 -21 -229 38 -420 99
-573 182 -204 111 -300 211 -285 297 13 75 12 75 58 37 23 -18 75 -55 115 -81z
m-1620 -82 c-1 -5 -20 -38 -41 -76 -45 -78 -99 -224 -130 -347 -17 -70 -21
-117 -21 -265 -1 -307 43 -523 137 -680 23 -38 43 -73 45 -77 2 -4 -9 -6 -25
-3 -15 3 -102 17 -193 31 -91 14 -168 28 -172 31 -4 2 5 30 21 62 68 134 107
309 97 431 -14 172 -71 303 -175 403 -99 95 -170 127 -331 148 -140 17 -270
-24 -370 -117 -27 -26 -50 -43 -50 -39 0 21 86 178 125 228 99 126 298 236
483 267 60 10 605 12 600 3z m1036 -5 c-4 -7 -22 -35 -40 -63 -150 -237 -244
-598 -244 -937 0 -206 31 -371 95 -505 25 -54 30 -73 20 -73 -8 0 -74 9 -147
20 -396 61 -513 82 -538 95 -76 39 -174 202 -215 356 -40 154 -59 356 -46 502
24 265 88 445 207 576 l36 41 440 0 c349 0 438 -3 432 -12z m305 -33 c33 -63
141 -162 244 -224 377 -228 976 -331 1251 -216 21 9 39 15 41 13 9 -10 25
-147 25 -214 0 -376 -200 -709 -525 -871 -56 -28 -212 -92 -262 -107 l-22 -7
6 348 c5 269 3 357 -7 388 -20 63 -115 199 -178 255 -114 102 -268 154 -437
148 -76 -2 -100 -8 -155 -34 -80 -38 -171 -119 -222 -199 -58 -89 -82 -178
-83 -305 0 -104 1 -107 64 -290 35 -102 72 -204 82 -227 l18 -43 -32 0 c-67 0
-106 19 -142 68 -70 95 -127 270 -146 446 -18 164 14 423 78 636 58 193 155
375 238 448 30 27 44 32 88 32 52 0 52 0 76 -45z m-2017 -484 c62 -24 147 -94
183 -150 44 -71 60 -138 60 -256 -1 -131 -21 -208 -96 -357 -96 -191 -174
-292 -375 -488 l-138 -134 -12 67 c-32 171 -165 294 -331 305 -40 2 -73 7 -73
10 0 11 163 548 186 614 78 217 198 365 334 409 47 16 201 4 262 -20z m2390
-193 c93 -46 173 -125 218 -214 l33 -64 -7 -248 c-7 -287 -17 -525 -22 -531
-2 -2 -18 6 -36 17 -91 56 -216 65 -316 22 -47 -20 -121 -87 -147 -134 -9 -15
-24 20 -84 185 -137 378 -191 550 -191 604 0 134 42 246 120 319 80 75 115 87
246 84 104 -3 114 -5 186 -40z m1588 -893 c41 -21 64 -68 57 -117 -8 -63 -48
-112 -118 -147 -83 -41 -121 -41 -165 3 -30 30 -34 40 -34 89 0 103 83 186
188 187 24 0 56 -7 72 -15z m-4632 -81 c104 -43 154 -153 120 -266 -19 -63
-49 -88 -105 -88 -89 1 -156 48 -205 143 -15 31 -19 53 -16 94 9 106 103 160
206 117z m2222 -54 l346 -53 58 -166 c71 -201 77 -212 132 -271 42 -45 49 -63
183 -458 l140 -412 -497 0 -497 0 0 68 c0 92 -43 181 -122 252 -69 61 -133 86
-255 100 -51 6 -103 13 -114 15 -20 4 -16 21 97 374 120 374 142 470 131 566
l-5 48 29 -5 c16 -3 184 -29 374 -58z m931 -126 c34 -17 77 -68 85 -100 18
-71 -30 -161 -109 -200 -133 -68 -267 -3 -267 130 1 127 85 204 210 190 30 -3
67 -12 81 -20z m1863 -195 l197 -221 -38 -26 c-21 -13 -51 -37 -67 -51 -28
-26 -99 -125 -107 -149 -3 -8 -43 28 -99 85 -52 54 -156 161 -232 239 -76 77
-138 144 -138 147 0 4 9 7 20 7 45 0 136 55 200 121 36 37 66 68 66 68 1 1 90
-99 198 -220z m-5339 105 c23 -59 113 -156 176 -187 l49 -25 -191 -185 -192
-184 -56 62 c-31 34 -80 89 -109 122 l-52 61 130 138 c72 77 150 162 173 191
23 29 45 52 48 53 4 0 14 -20 24 -46z m1655 -217 c65 -31 150 -43 203 -29 20
6 37 8 37 4 0 -3 -29 -96 -64 -207 -35 -110 -67 -210 -71 -222 -4 -14 -23 -30
-51 -42 -25 -11 -69 -45 -98 -76 l-54 -55 -32 37 c-30 34 -32 40 -26 87 10 90
91 536 96 533 3 -2 30 -15 60 -30z m1996 -134 c14 -49 51 -166 81 -261 30 -96
53 -175 51 -176 -2 -2 -35 -11 -74 -20 -39 -10 -107 -35 -150 -56 -43 -21 -79
-38 -80 -37 -1 1 -39 114 -85 251 -46 138 -85 254 -87 258 -2 4 14 8 36 8 63
0 163 36 223 79 30 22 55 40 56 41 1 0 14 -39 29 -87z m2305 -18 c84 -30 158
-114 134 -150 -16 -24 -534 -275 -566 -275 -62 0 -102 85 -79 168 27 102 167
218 309 257 64 18 150 18 202 0z m-6276 -249 c50 -55 115 -128 145 -162 33
-38 63 -63 76 -63 68 -3 148 -55 175 -115 19 -42 26 -131 10 -140 -4 -3 -78
-6 -162 -7 l-154 -1 -45 49 c-85 92 -278 320 -305 359 -24 35 -26 46 -22 101
5 71 32 121 80 152 l32 21 40 -47 c22 -26 81 -93 130 -147z m2272 -225 c191
-29 274 -79 290 -175 l6 -36 -250 0 -249 0 -42 43 c-23 23 -42 49 -42 56 0 42
95 131 140 131 8 0 74 -9 147 -19z m2161 -111 c77 -33 132 -107 132 -178 0
-10 -67 -12 -336 -10 l-336 3 -19 24 c-15 18 -18 32 -13 55 12 58 50 85 167
117 105 28 329 23 405 -11z"/>
<path d="M6525 6829 c-48 -42 -68 -114 -63 -222 2 -53 10 -96 22 -121 45 -91
159 -126 227 -69 53 45 69 93 69 211 0 119 -11 153 -64 200 -33 28 -43 32 -96
32 -52 0 -64 -4 -95 -31z"/>
</g>
</svg>
